<?xml version="1.0" encoding="UTF-8"?>
<svg xmlns="http://www.w3.org/2000/svg" xmlns:xlink="http://www.w3.org/1999/xlink" width="64pt" height="64pt" viewBox="0 0 64 64" version="1.1">
<g id="surface1742869">
<path style=" stroke:none;fill-rule:nonzero;fill:rgb(100%,100%,100%);fill-opacity:1;" d="M 50 31 L 14 31 C 12.351562 31 11 32.351562 11 34 C 11 35.648438 12.351562 37 14 37 L 14.5 37 L 14.5 42 C 14.5 51.648438 22.351562 59.5 32 59.5 C 41.648438 59.5 49.5 51.648438 49.5 42 L 49.5 37 L 50 37 C 51.648438 37 53 35.648438 53 34 C 53 32.351562 51.648438 31 50 31 Z M 50 31 "/>
<path style=" stroke:none;fill-rule:nonzero;fill:rgb(26.666667%,29.411765%,32.941176%);fill-opacity:1;" d="M 54.5 34 C 54.5 31.5 52.5 29.5 50 29.5 L 46 29.5 L 46 18.5 C 46 10.800781 39.699219 4.5 32 4.5 C 24.300781 4.5 18 10.800781 18 18.5 L 18 29.5 L 14 29.5 C 11.5 29.5 9.5 31.5 9.5 34 C 9.5 36.5 11.5 38.5 14 38.5 C 14.851562 38.5 15.5 37.851562 15.5 37 C 15.5 36.148438 14.851562 35.5 14 35.5 C 13.148438 35.5 12.5 34.851562 12.5 34 C 12.5 33.148438 13.148438 32.5 14 32.5 L 50 32.5 C 50.851562 32.5 51.5 33.148438 51.5 34 C 51.5 34.851562 50.851562 35.5 50 35.5 L 21.5 35.5 C 20.648438 35.5 20 36.148438 20 37 C 20 37.851562 20.648438 38.5 21.5 38.5 L 48 38.5 L 48 42 C 48 50.800781 40.800781 58 32 58 C 23.199219 58 16 50.800781 16 42 C 16 41.148438 15.351562 40.5 14.5 40.5 C 13.648438 40.5 13 41.148438 13 42 C 13 52.5 21.5 61 32 61 C 42.5 61 51 52.5 51 42 L 51 38.398438 C 53 37.949219 54.5 36.148438 54.5 34 Z M 21 18.5 C 21 12.449219 25.949219 7.5 32 7.5 C 38.050781 7.5 43 12.449219 43 18.5 L 43 29.5 L 21 29.5 Z M 21 18.5 "/>
<path style=" stroke:none;fill-rule:nonzero;fill:rgb(90.588235%,29.803922%,23.529412%);fill-opacity:1;" d="M 32 52 C 31.148438 52 30.5 51.351562 30.5 50.5 L 30.5 47 C 30.5 46.148438 31.148438 45.5 32 45.5 C 32.851562 45.5 33.5 46.148438 33.5 47 L 33.5 50.5 C 33.5 51.351562 32.851562 52 32 52 Z M 32 52 "/>
</g>
</svg>
